<svg xmlns="http://www.w3.org/2000/svg" viewBox="0 0 300 560" width="300" height="560" role="img" aria-label="Chrome auf Android: das Menue mit den drei Punkten oben rechts"><title>Chrome auf Android: das Menue mit den drei Punkten oben rechts</title><rect x="4" y="4" width="292" height="552" rx="26" fill="#ffffff" stroke="#334155" stroke-width="2.5"/><rect x="118.0" y="10" width="64" height="7" rx="3.5" fill="#334155"/><text x="26" y="40" font-family="-apple-system,BlinkMacSystemFont,'Segoe UI',Roboto,sans-serif" font-size="11" fill="#94a3b8" font-weight="600" text-anchor="start">9:41</text><rect x="240" y="32" width="20" height="9" rx="2" fill="#94a3b8"/><rect x="20" y="54" width="260" height="34" rx="17" fill="#f1f5f9" stroke="#f1f5f9" stroke-width="0"/><text x="36" y="76" font-family="-apple-system,BlinkMacSystemFont,'Segoe UI',Roboto,sans-serif" font-size="11" fill="#94a3b8" text-anchor="start">dorfladen-oberornau.de</text><g fill="#1f2937"><circle cx="266" cy="65" r="2"/><circle cx="266" cy="71" r="2"/><circle cx="266" cy="77" r="2"/></g><circle cx="266" cy="71" r="20" fill="none" stroke="#dc2626" stroke-width="2.5" stroke-dasharray="5 4" opacity=".95"/><rect x="16" y="104" width="268" height="54" rx="8" fill="#2d5016"/><g transform="translate(30,118) scale(1.0)" fill="none" stroke="#ffffff" stroke-width="2" stroke-linecap="round" stroke-linejoin="round"><path d="M7 20h10"/><path d="M10 20c5.5-2.5.8-6.4 3-10"/><path d="M9.5 9.4c1.1.8 1.8 2.2 2.3 3.7-2 .4-3.5.4-4.8-.3-1.2-.6-2.3-1.9-3-4.2 2.8-.5 4.4 0 5.5.8z"/><path d="M14.1 6a7 7 0 0 0-1.1 4c1.9-.1 3.3-.6 4.3-1.4 1-1 1.6-2.3 1.7-4.6-2.7.1-4 1-4.9 2z"/></g><text x="66" y="136" font-family="-apple-system,BlinkMacSystemFont,'Segoe UI',Roboto,sans-serif" font-size="12" fill="#ffffff" font-weight="600" text-anchor="start">Dorfladen Oberornau</text><rect x="16" y="174" width="224" height="8" rx="4" fill="#f1f5f9"/><rect x="16" y="190" width="242" height="8" rx="4" fill="#f1f5f9"/><rect x="16" y="206" width="204" height="8" rx="4" fill="#f1f5f9"/><text x="150.0" y="530" font-family="-apple-system,BlinkMacSystemFont,'Segoe UI',Roboto,sans-serif" font-size="11" fill="#dc2626" font-weight="600" text-anchor="middle">Oben rechts auf die drei Punkte tippen</text></svg>