<svg xmlns="http://www.w3.org/2000/svg" viewBox="0 0 300 560" width="300" height="560" role="img" aria-label="Der Startbildschirm mit dem neuen Dorfladen-Symbol"><title>Der Startbildschirm mit dem neuen Dorfladen-Symbol</title><rect x="4" y="4" width="292" height="552" rx="26" fill="#dbeafe" stroke="#334155" stroke-width="2.5"/><rect x="118.0" y="10" width="64" height="7" rx="3.5" fill="#334155"/><text x="26" y="40" font-family="-apple-system,BlinkMacSystemFont,'Segoe UI',Roboto,sans-serif" font-size="11" fill="#1e3a5f" font-weight="600" text-anchor="start">9:41</text><rect x="30" y="80" width="54" height="54" rx="14" fill="#cbd5e1" stroke="#cbd5e1" stroke-width="0"/><rect x="96" y="80" width="54" height="54" rx="14" fill="#cbd5e1" stroke="#cbd5e1" stroke-width="0"/><rect x="162" y="80" width="54" height="54" rx="14" fill="#cbd5e1" stroke="#cbd5e1" stroke-width="0"/><rect x="228" y="80" width="54" height="54" rx="14" fill="#cbd5e1" stroke="#cbd5e1" stroke-width="0"/><rect x="30" y="176" width="54" height="54" rx="14" fill="#cbd5e1" stroke="#cbd5e1" stroke-width="0"/><rect x="96" y="176" width="54" height="54" rx="14" fill="#2d5016" stroke="#2d5016" stroke-width="0"/><g transform="translate(109,189) scale(1.2)" fill="none" stroke="#ffffff" stroke-width="2" stroke-linecap="round" stroke-linejoin="round"><path d="M7 20h10"/><path d="M10 20c5.5-2.5.8-6.4 3-10"/><path d="M9.5 9.4c1.1.8 1.8 2.2 2.3 3.7-2 .4-3.5.4-4.8-.3-1.2-.6-2.3-1.9-3-4.2 2.8-.5 4.4 0 5.5.8z"/><path d="M14.1 6a7 7 0 0 0-1.1 4c1.9-.1 3.3-.6 4.3-1.4 1-1 1.6-2.3 1.7-4.6-2.7.1-4 1-4.9 2z"/></g><text x="123" y="250" font-family="-apple-system,BlinkMacSystemFont,'Segoe UI',Roboto,sans-serif" font-size="9" fill="#1e3a5f" font-weight="600" text-anchor="middle">Dorfladen</text><circle cx="123" cy="203" r="32" fill="none" stroke="#dc2626" stroke-width="2.5" stroke-dasharray="5 4" opacity=".95"/><rect x="162" y="176" width="54" height="54" rx="14" fill="#cbd5e1" stroke="#cbd5e1" stroke-width="0"/><rect x="228" y="176" width="54" height="54" rx="14" fill="#cbd5e1" stroke="#cbd5e1" stroke-width="0"/><text x="150.0" y="520" font-family="-apple-system,BlinkMacSystemFont,'Segoe UI',Roboto,sans-serif" font-size="11" fill="#2d5016" font-weight="600" text-anchor="middle">Fertig — die App liegt auf dem Startbildschirm</text></svg>